<?xml version="1.0" encoding="UTF-8" standalone="no"?>
<!DOCTYPE svg PUBLIC "-//W3C//DTD SVG 20010904//EN"
              "http://www.w3.org/TR/2001/REC-SVG-20010904/DTD/svg10.dtd">

<svg xmlns="http://www.w3.org/2000/svg"
     width="53.3333in" height="53.3333in"
     viewBox="0 0 3840 3840">
  <path id="Selection"
        fill="none" stroke="black" stroke-width="1"
        d="M 478.00,0.06
           C 478.00,0.06 516.00,0.06 516.00,0.06
             516.00,0.06 587.00,0.06 587.00,0.06
             587.00,0.06 804.00,0.06 804.00,0.06
             804.00,0.06 1465.00,0.06 1465.00,0.06
             1465.00,0.06 2675.00,0.06 2675.00,0.06
             2675.00,0.06 3354.00,0.06 3354.00,0.06
             3354.00,0.06 3369.00,1.00 3369.00,1.00
             3369.00,1.00 3373.00,1.00 3373.00,1.00
             3373.00,1.00 3393.00,2.84 3393.00,2.84
             3427.48,6.52 3456.89,12.69 3490.00,22.98
             3659.69,75.71 3786.01,213.62 3826.88,386.00
             3832.41,409.29 3836.34,433.13 3838.09,457.00
             3838.09,457.00 3839.00,467.00 3839.00,467.00
             3839.00,467.00 3840.00,486.00 3840.00,486.00
             3840.00,486.00 3840.00,1084.00 3840.00,1084.00
             3840.00,1084.00 3840.00,2279.00 3840.00,2279.00
             3840.00,2279.00 3840.00,2941.00 3840.00,2941.00
             3840.00,2941.00 3840.00,3354.00 3840.00,3354.00
             3840.00,3354.00 3839.00,3369.00 3839.00,3369.00
             3839.00,3369.00 3839.00,3373.00 3839.00,3373.00
             3839.00,3373.00 3837.16,3393.00 3837.16,3393.00
             3833.48,3427.48 3827.31,3456.89 3817.02,3490.00
             3764.29,3659.69 3626.38,3786.01 3454.00,3826.88
             3430.71,3832.41 3406.87,3836.34 3383.00,3838.09
             3383.00,3838.09 3373.00,3839.00 3373.00,3839.00
             3373.00,3839.00 3354.00,3840.00 3354.00,3840.00
             3354.00,3840.00 2756.00,3840.00 2756.00,3840.00
             2756.00,3840.00 1561.00,3840.00 1561.00,3840.00
             1561.00,3840.00 899.00,3840.00 899.00,3840.00
             899.00,3840.00 486.00,3840.00 486.00,3840.00
             486.00,3840.00 471.00,3839.00 471.00,3839.00
             471.00,3839.00 467.00,3839.00 467.00,3839.00
             467.00,3839.00 447.00,3837.16 447.00,3837.16
             412.52,3833.48 383.11,3827.31 350.00,3817.02
             180.31,3764.29 53.99,3626.38 13.12,3454.00
             7.59,3430.71 3.66,3406.87 1.91,3383.00
             1.91,3383.00 1.00,3373.00 1.00,3373.00
             1.00,3373.00 0.00,3354.00 0.00,3354.00
             0.00,3354.00 0.00,2518.00 0.00,2518.00
             0.00,2518.00 0.00,845.00 0.00,845.00
             0.00,845.00 0.00,588.00 0.00,588.00
             0.00,588.00 0.00,486.00 0.00,486.00
             0.00,486.00 1.00,467.00 1.00,467.00
             1.22,448.93 7.31,412.30 11.21,394.00
             33.62,288.74 92.67,188.95 175.00,119.59
             208.69,91.21 246.90,65.72 287.00,47.31
             325.57,29.60 366.18,15.97 408.00,8.42
             408.00,8.42 452.00,2.17 452.00,2.17
             452.00,2.17 478.00,0.06 478.00,0.06 Z" />
  <path id="TFS"
        fill="none" stroke="black" stroke-width="1"
        d="M 592.05,1137.00
           C 592.05,1137.00 229.80,1137.00 229.80,1137.00
             229.80,1137.00 229.80,822.00 229.80,822.00
             229.80,822.00 1300.80,822.00 1300.80,822.00
             1300.80,822.00 1300.80,1137.00 1300.80,1137.00
             1300.80,1137.00 938.55,1137.00 938.55,1137.00
             938.55,1137.00 938.55,3027.00 938.55,3027.00
             938.55,3027.00 592.05,3027.00 592.05,3027.00
             592.05,3027.00 592.05,1137.00 592.05,1137.00 Z
           M 1485.16,822.00
           C 1485.16,822.00 2401.80,822.00 2401.80,822.00
             2401.80,822.00 2401.80,1137.00 2401.80,1137.00
             2401.80,1137.00 1831.66,1137.00 1831.66,1137.00
             1831.66,1137.00 1831.66,1751.25 1831.66,1751.25
             1831.66,1751.25 2278.95,1751.25 2278.95,1751.25
             2278.95,1751.25 2278.95,2066.25 2278.95,2066.25
             2278.95,2066.25 1831.66,2066.25 1831.66,2066.25
             1831.66,2066.25 1831.66,3027.00 1831.66,3027.00
             1831.66,3027.00 1485.16,3027.00 1485.16,3027.00
             1485.16,3027.00 1485.16,822.00 1485.16,822.00 Z
           M 3036.59,3058.50
           C 2868.59,3058.50 2741.54,3010.73 2655.44,2915.17
             2569.34,2819.62 2526.30,2682.59 2526.30,2504.09
             2526.30,2504.09 2526.30,2378.09 2526.30,2378.09
             2526.30,2378.09 2853.91,2378.09 2853.91,2378.09
             2853.91,2378.09 2853.91,2529.30 2853.91,2529.30
             2853.91,2672.10 2913.75,2743.50 3033.45,2743.50
             3092.25,2743.50 3136.88,2726.18 3167.33,2691.53
             3197.77,2656.88 3213.00,2600.70 3213.00,2523.00
             3213.00,2430.61 3192.00,2349.23 3150.00,2278.88
             3108.00,2208.52 3030.30,2124.00 2916.91,2025.30
             2774.10,1899.30 2674.35,1785.38 2617.64,1683.53
             2560.94,1581.68 2532.59,1466.70 2532.59,1338.59
             2532.59,1164.30 2576.69,1029.38 2664.89,933.83
             2753.10,838.28 2881.20,790.50 3049.20,790.50
             3215.10,790.50 3340.57,838.28 3425.62,933.83
             3510.68,1029.38 3553.20,1166.41 3553.20,1344.91
             3553.20,1344.91 3553.20,1436.25 3553.20,1436.25
             3553.20,1436.25 3225.59,1436.25 3225.59,1436.25
             3225.59,1436.25 3225.59,1322.84 3225.59,1322.84
             3225.59,1247.25 3210.89,1192.13 3181.50,1157.48
             3152.10,1122.83 3109.05,1105.50 3052.34,1105.50
             2936.84,1105.50 2879.09,1175.85 2879.09,1316.55
             2879.09,1396.35 2900.62,1470.90 2943.67,1540.20
             2986.72,1609.51 3064.95,1693.51 3178.34,1792.20
             3323.25,1918.20 3423.00,2032.66 3477.59,2135.56
             3532.20,2238.46 3559.50,2359.20 3559.50,2497.80
             3559.50,2678.40 3514.88,2817.01 3425.62,2913.61
             3336.38,3010.20 3206.70,3058.50 3036.59,3058.50 Z" />
</svg>
